<svg width="145" height="25" viewBox="0 0 145 25" fill="none" xmlns="http://www.w3.org/2000/svg">
<path d="M11.572 2.31085C11.9079 1.47438 13.0921 1.47438 13.428 2.31085L15.4989 7.46782C15.6419 7.82402 15.9762 8.06691 16.3592 8.09288L21.9037 8.46882C22.803 8.5298 23.1689 9.65599 22.4772 10.2339L18.2126 13.7971C17.918 14.0432 17.7903 14.4362 17.884 14.8084L19.2398 20.1977C19.4597 21.0719 18.5017 21.7679 17.7383 21.2886L13.0317 18.3338C12.7066 18.1297 12.2934 18.1297 11.9683 18.3338L7.26171 21.2886C6.4983 21.7679 5.54031 21.0719 5.76022 20.1977L7.11602 14.8084C7.20967 14.4362 7.08198 14.0432 6.78741 13.7971L2.52278 10.2339C1.83105 9.65599 2.19697 8.5298 3.0963 8.46882L8.64081 8.09288C9.02378 8.06691 9.35809 7.82402 9.50113 7.46782L11.572 2.31085Z" fill="#FCC851"/>
<path d="M41.572 2.31085C41.9079 1.47438 43.0921 1.47438 43.428 2.31085L45.4989 7.46782C45.6419 7.82402 45.9762 8.06691 46.3592 8.09288L51.9037 8.46882C52.803 8.5298 53.1689 9.65599 52.4772 10.2339L48.2126 13.7971C47.918 14.0432 47.7903 14.4362 47.884 14.8084L49.2398 20.1977C49.4597 21.0719 48.5017 21.7679 47.7383 21.2886L43.0317 18.3338C42.7066 18.1297 42.2934 18.1297 41.9683 18.3338L37.2617 21.2886C36.4983 21.7679 35.5403 21.0719 35.7602 20.1977L37.116 14.8084C37.2097 14.4362 37.082 14.0432 36.7874 13.7971L32.5228 10.2339C31.8311 9.65599 32.197 8.5298 33.0963 8.46882L38.6408 8.09288C39.0238 8.06691 39.3581 7.82402 39.5011 7.46782L41.572 2.31085Z" fill="#FCC851"/>
<path d="M71.572 2.31085C71.9079 1.47438 73.0921 1.47438 73.428 2.31085L75.4989 7.46782C75.6419 7.82402 75.9762 8.06691 76.3592 8.09288L81.9037 8.46882C82.803 8.5298 83.1689 9.65599 82.4772 10.2339L78.2126 13.7971C77.918 14.0432 77.7903 14.4362 77.884 14.8084L79.2398 20.1977C79.4597 21.0719 78.5017 21.7679 77.7383 21.2886L73.0317 18.3338C72.7066 18.1297 72.2934 18.1297 71.9683 18.3338L67.2617 21.2886C66.4983 21.7679 65.5403 21.0719 65.7602 20.1977L67.116 14.8084C67.2097 14.4362 67.082 14.0432 66.7874 13.7971L62.5228 10.2339C61.8311 9.65599 62.197 8.5298 63.0963 8.46882L68.6408 8.09288C69.0238 8.06691 69.3581 7.82402 69.5011 7.46782L71.572 2.31085Z" fill="#FCC851"/>
<path d="M101.572 2.31085C101.908 1.47438 103.092 1.47438 103.428 2.31085L105.499 7.46782C105.642 7.82402 105.976 8.06691 106.359 8.09288L111.904 8.46882C112.803 8.5298 113.169 9.65599 112.477 10.2339L108.213 13.7971C107.918 14.0432 107.79 14.4362 107.884 14.8084L109.24 20.1977C109.46 21.0719 108.502 21.7679 107.738 21.2886L103.032 18.3338C102.707 18.1297 102.293 18.1297 101.968 18.3338L97.2617 21.2886C96.4983 21.7679 95.5403 21.0719 95.7602 20.1977L97.116 14.8084C97.2097 14.4362 97.082 14.0432 96.7874 13.7971L92.5228 10.2339C91.8311 9.65599 92.197 8.5298 93.0963 8.46882L98.6408 8.09288C99.0238 8.06691 99.3581 7.82402 99.5011 7.46782L101.572 2.31085Z" fill="#FCC851"/>
<path d="M131.572 2.31085C131.908 1.47438 133.092 1.47438 133.428 2.31085L135.499 7.46782C135.642 7.82402 135.976 8.06691 136.359 8.09288L141.904 8.46882C142.803 8.5298 143.169 9.65599 142.477 10.2339L138.213 13.7971C137.918 14.0432 137.79 14.4362 137.884 14.8084L139.24 20.1977C139.46 21.0719 138.502 21.7679 137.738 21.2886L133.032 18.3338C132.707 18.1297 132.293 18.1297 131.968 18.3338L127.262 21.2886C126.498 21.7679 125.54 21.0719 125.76 20.1977L127.116 14.8084C127.21 14.4362 127.082 14.0432 126.787 13.7971L122.523 10.2339C121.831 9.65599 122.197 8.5298 123.096 8.46882L128.641 8.09288C129.024 8.06691 129.358 7.82402 129.501 7.46782L131.572 2.31085Z" fill="#FCC851"/>
<mask id="mask0_21_96" style="mask-type:alpha" maskUnits="userSpaceOnUse" x="122" y="1" width="21" height="21">
<path d="M131.572 2.31085C131.908 1.47438 133.092 1.47438 133.428 2.31085L135.499 7.46782C135.642 7.82402 135.976 8.06691 136.359 8.09288L141.904 8.46882C142.803 8.5298 143.169 9.65599 142.477 10.2339L138.213 13.7971C137.918 14.0432 137.79 14.4362 137.884 14.8084L139.24 20.1977C139.46 21.0719 138.502 21.7679 137.738 21.2886L133.032 18.3338C132.707 18.1297 132.293 18.1297 131.968 18.3338L127.262 21.2886C126.498 21.7679 125.54 21.0719 125.76 20.1977L127.116 14.8084C127.21 14.4362 127.082 14.0432 126.787 13.7971L122.523 10.2339C121.831 9.65599 122.197 8.5298 123.096 8.46882L128.641 8.09288C129.024 8.06691 129.358 7.82402 129.501 7.46782L131.572 2.31085Z" fill="#FCC851"/>
</mask>
<g mask="url(#mask0_21_96)">
<rect x="136" y="-6" width="14" height="31" fill="#DCDCDC"/>
</g>
</svg>
