<?xml version="1.0" encoding="UTF-8"?>
<svg id="_Слой_1" data-name="Слой 1" xmlns="http://www.w3.org/2000/svg" viewBox="0 0 674.09 311.65">
  <defs>
    <style>
      .cls-1 {
        fill: #0067e2;
      }
    </style>
  </defs>
  <path class="cls-1" d="M375.93,19.77h180.34c17.15,0,31.06,13.9,31.06,31.06v43.2c0,5.41,4.17,10.13,9.58,10.3,5.6,.17,10.19-4.32,10.19-9.88V50.83c0-28.07-22.76-50.83-50.83-50.83h-180.34c-5.46,0-9.89,4.43-9.89,9.89h0c0,5.46,4.43,9.89,9.89,9.89Z"/>
  <circle class="cls-1" cx="336.51" cy="9.89" r="9.89"/>
  <path class="cls-1" d="M630.51,121.97h-70.97s-.05-.02-.05-.05v-23.23c0-15.97-12.95-28.92-28.92-28.92h-174.1c-7.67,0-14.68,2.91-19.97,7.68-5.29-4.77-12.3-7.68-19.97-7.68H142.46c-15.97,0-28.92,12.95-28.92,28.92v23.23s-.02,.05-.05,.05h-26.26s-.05-.02-.05-.05V50.88c0-17.18,13.93-31.11,31.11-31.11h179.35c4.73,0,9.08-3.12,10.11-7.73,1.43-6.4-3.42-12.04-9.58-12.04H118.28c-28.1,0-50.88,22.78-50.88,50.88v80.92c0,5.49,4.45,9.94,9.94,9.94H630.75c13.59,0,24.56,11.13,23.49,24.69-.93,11.75-10.8,21.03-22.79,21.03H46C19.68,187.46-1.54,209.01,.09,235.28c1.45,23.51,21.05,42.2,44.92,42.2h16.94s.06,.03,.05,.07l-6.4,20.96c-1.55,5.08,.93,10.72,5.93,12.54,1.13,.41,2.29,.61,3.42,.61,4.23,0,8.15-2.74,9.45-7l8.29-27.14s.03-.04,.05-.04h506.19s.04,.02,.05,.04l7.47,26.89c1.22,4.38,5.19,7.24,9.52,7.24,1.12,0,2.26-.19,3.39-.6,4.92-1.78,7.44-7.28,6.04-12.32l-9.38-33.75c-1.19-4.3-5.11-7.28-9.58-7.28H75.37s-.04,0-.07,0h-29.62c-13.69,0-25.39-10.62-25.88-24.31-.52-14.33,11-26.16,25.22-26.16H631.45c22.62,0,41.17-17.7,42.55-39.97,1.54-24.89-18.56-45.3-43.5-45.3Zm-303.88-.05s-.02,.05-.05,.05H133.36s-.05-.02-.05-.05v-23.23c0-5.05,4.1-9.15,9.15-9.15h174.94c5.1,0,9.23,4.13,9.23,9.23v23.15Zm213.09,0s-.02,.05-.05,.05h-193.21s-.05-.02-.05-.05v-23.15c0-5.1,4.13-9.23,9.23-9.23h174.94c5.05,0,9.15,4.1,9.15,9.15v23.23Z"/>
</svg>