<?xml version="1.0" encoding="UTF-8"?>
<svg id="_Слой_1" data-name="Слой 1" xmlns="http://www.w3.org/2000/svg" viewBox="0 0 808.21 201.09">
  <defs>
    <style>
      .cls-1 {
        fill: #0067e2;
      }

      .cls-2 {
        fill: #070707;
      }
    </style>
  </defs>
  <g>
    <g>
      <path class="cls-2" d="M480.85,66v-30.12h13.41V103.9h-13.41v-24.88c-4.15,1.75-8.58,2.62-13.31,2.62-6.8,0-12.47-1.91-17.01-5.73-4.41-3.89-6.61-9.13-6.61-15.74v-24.29h13.41v22.54c0,3.24,.96,5.78,2.87,7.63,1.91,1.85,4.45,2.77,7.63,2.77,4.6,0,8.94-.94,13.02-2.82Z"/>
      <path class="cls-2" d="M559.65,103.9h-13.41V62.41l-29.15,41.49h-10.2V35.88h13.41v41.59l29.15-41.59h10.2V103.9Z"/>
      <path class="cls-2" d="M599.3,68.92l26.14,34.98h-15.45l-24.29-31.87v31.87h-13.41V35.88h13.41v30.03l23.32-30.03h15.45l-25.17,33.04Z"/>
      <path class="cls-2" d="M692.09,103.9h-14.58l-4.08-12.24h-27.11l-4.08,12.24h-14.48l23.81-68.02h16.62l23.9,68.02Zm-32.16-52.57l-9.33,27.79h18.66l-9.33-27.79Z"/>
      <path class="cls-2" d="M698.7,35.88h38.67v12.83h-25.26v55.19h-13.41V35.88Z"/>
      <path class="cls-2" d="M797.91,95.06c-6.87,6.8-15.22,10.2-25.07,10.2s-18.2-3.4-25.07-10.2c-6.8-6.93-10.2-15.32-10.2-25.17s3.4-18.27,10.2-25.07c6.87-6.87,15.22-10.3,25.07-10.3s18.2,3.43,25.07,10.3c6.87,6.8,10.3,15.16,10.3,25.07s-3.43,18.3-10.3,25.17Zm-40.71-9.13c4.14,4.15,9.36,6.22,15.64,6.22s11.5-2.07,15.64-6.22c4.21-4.21,6.32-9.55,6.32-16.03s-2.11-11.82-6.32-16.03c-4.21-4.21-9.43-6.32-15.64-6.32s-11.43,2.11-15.64,6.32c-4.21,4.21-6.32,9.56-6.32,16.03s2.1,11.82,6.32,16.03Z"/>
    </g>
    <g>
      <path class="cls-2" d="M548.59,134.66h6.84v31.11h-6.53v-20.47l-8.96,14.25h-.81l-8.9-14.18v20.4h-6.53v-31.11h6.84l9.02,14.37,9.02-14.37Z"/>
      <path class="cls-2" d="M593.25,153.07h-24.76c.5,2.32,1.63,4.13,3.39,5.41,1.76,1.29,3.95,1.93,6.56,1.93,3.52,0,6.2-1.29,8.03-3.86l5.54,3.23c-3.03,4.52-7.57,6.78-13.62,6.78-5.02,0-9.1-1.53-12.26-4.6-3.11-3.11-4.67-7.03-4.67-11.76s1.53-8.48,4.6-11.63c3.03-3.15,6.97-4.73,11.82-4.73,4.52,0,8.25,1.6,11.2,4.79,2.94,3.19,4.42,7.07,4.42,11.63,0,.83-.08,1.76-.25,2.8Zm-24.82-5.47h18.29c-.46-2.45-1.48-4.33-3.08-5.66-1.6-1.33-3.54-1.99-5.82-1.99-2.49,0-4.56,.68-6.22,2.05-1.66,1.37-2.72,3.23-3.17,5.6Z"/>
      <path class="cls-2" d="M613.66,166.57c-4.73,0-8.63-1.53-11.7-4.6-2.99-3.11-4.48-7.07-4.48-11.88,0-5.23,.79-9.29,2.36-12.19,1.53-2.86,4.73-5.49,9.58-7.9,.16-.08,.44-.22,.84-.4,.39-.19,.82-.38,1.28-.59,.46-.21,.91-.41,1.37-.62,1.74-.79,2.82-1.28,3.23-1.49,.25-.12,.97-.58,2.18-1.37,1.45-1.04,2.43-2.51,2.92-4.42l5.47,3.17c-.21,2.28-1.64,4.38-4.29,6.28-.46,.42-1.31,.91-2.55,1.49l-2.67,1.24-3.11,1.31c-2.7,1.08-4.69,2.18-5.97,3.3-1.29,1.12-2.18,2.55-2.67,4.29,2.49-2.82,5.87-4.23,10.14-4.23,3.65,0,6.82,1.31,9.52,3.92,2.74,2.61,4.11,5.99,4.11,10.14s-1.45,7.71-4.35,10.45c-2.86,2.74-6.59,4.11-11.2,4.11Zm-.06-6.28c2.61,0,4.75-.78,6.41-2.33,1.66-1.55,2.49-3.54,2.49-5.94s-.82-4.46-2.46-6.03c-1.64-1.58-3.76-2.36-6.38-2.36-2.32,0-4.42,.75-6.28,2.24-1.87,1.41-2.8,3.36-2.8,5.85s.87,4.54,2.61,6.16c1.74,1.62,3.88,2.43,6.41,2.43Z"/>
      <path class="cls-2" d="M664.54,153.07h-24.76c.5,2.32,1.63,4.13,3.39,5.41,1.76,1.29,3.95,1.93,6.56,1.93,3.52,0,6.2-1.29,8.02-3.86l5.54,3.23c-3.03,4.52-7.57,6.78-13.62,6.78-5.02,0-9.1-1.53-12.26-4.6-3.11-3.11-4.67-7.03-4.67-11.76s1.53-8.48,4.6-11.63c3.03-3.15,6.97-4.73,11.82-4.73,4.52,0,8.25,1.6,11.2,4.79,2.94,3.19,4.42,7.07,4.42,11.63,0,.83-.08,1.76-.25,2.8Zm-24.82-5.47h18.29c-.46-2.45-1.48-4.33-3.08-5.66-1.6-1.33-3.54-1.99-5.82-1.99-2.49,0-4.56,.68-6.22,2.05-1.66,1.37-2.72,3.23-3.17,5.6Z"/>
      <path class="cls-2" d="M671.88,134.66h23.83v31.11h-6.72v-24.64h-10.39v11.57c0,4.85-1.06,8.34-3.17,10.45-2.12,2.11-5.21,2.99-9.27,2.61v-6.28c1.91,.33,3.34-.07,4.29-1.21,.95-1.14,1.43-3.1,1.43-5.88v-17.73Z"/>
      <path class="cls-2" d="M710.27,145.24h6.84c3.36,0,6.08,.95,8.15,2.86,2.12,1.87,3.17,4.33,3.17,7.4s-1.06,5.5-3.17,7.4c-2.07,1.91-4.79,2.86-8.15,2.86h-13.56v-31.11h6.72v10.58Zm0,14.5h6.91c1.33,0,2.44-.39,3.33-1.18,.89-.79,1.34-1.8,1.34-3.05s-.44-2.26-1.31-3.05c-.87-.79-1.99-1.18-3.36-1.18h-6.91v8.46Z"/>
    </g>
  </g>
  <g>
    <path class="cls-1" d="M242.57,12.76h116.36c11.07,0,20.04,8.97,20.04,20.04v27.87c0,3.49,2.69,6.54,6.18,6.64,3.61,.11,6.58-2.79,6.58-6.38v-28.14c0-18.11-14.68-32.8-32.8-32.8h-116.36c-3.52,0-6.38,2.86-6.38,6.38h0c0,3.52,2.86,6.38,6.38,6.38Z"/>
    <circle class="cls-1" cx="217.14" cy="6.38" r="6.38"/>
    <path class="cls-1" d="M406.84,78.7h-45.79s-.03-.01-.03-.03v-14.99c0-10.31-8.36-18.66-18.66-18.66h-112.34c-4.95,0-9.47,1.88-12.89,4.96-3.42-3.08-7.94-4.96-12.89-4.96H91.92c-10.31,0-18.66,8.36-18.66,18.66v14.99s-.01,.03-.03,.03h-16.95s-.03-.01-.03-.03V32.83c0-11.09,8.99-20.07,20.07-20.07h115.73c3.05,0,5.86-2.01,6.52-4.99,.92-4.13-2.21-7.77-6.18-7.77H76.32c-18.13,0-32.83,14.7-32.83,32.83v52.21c0,3.54,2.87,6.41,6.41,6.41H407c8.77,0,15.85,7.18,15.16,15.93-.6,7.58-6.97,13.57-14.7,13.57H29.68C12.7,120.96-.99,134.86,.06,151.81c.94,15.17,13.58,27.23,28.99,27.23h10.93s.04,.02,.03,.04l-4.13,13.52c-1,3.28,.6,6.92,3.82,8.09,.73,.27,1.48,.39,2.21,.39,2.73,0,5.26-1.77,6.1-4.52l5.35-17.51s.02-.02,.03-.02H380.01s.03,0,.03,.02l4.82,17.35c.78,2.82,3.35,4.67,6.14,4.67,.72,0,1.46-.12,2.19-.39,3.18-1.15,4.8-4.7,3.89-7.95l-6.05-21.78c-.77-2.78-3.3-4.7-6.18-4.7H48.63s-.03,0-.04,0H29.47c-8.83,0-16.38-6.86-16.7-15.68-.33-9.25,7.1-16.88,16.27-16.88H407.45c14.59,0,26.57-11.42,27.46-25.79,.99-16.06-11.98-29.23-28.07-29.23Zm-196.08-.03s-.01,.03-.03,.03H86.05s-.03-.01-.03-.03v-14.99c0-3.26,2.64-5.9,5.9-5.9h112.88c3.29,0,5.95,2.67,5.95,5.95v14.94Zm137.5,0s-.01,.03-.03,.03h-124.67s-.03-.01-.03-.03v-14.94c0-3.29,2.67-5.95,5.95-5.95h112.88c3.26,0,5.9,2.64,5.9,5.9v14.99Z"/>
  </g>
</svg>